<?xml version="1.0" encoding="UTF-8" standalone="no"?>
<!DOCTYPE svg PUBLIC "-//W3C//DTD SVG 1.1//EN" "http://www.w3.org/Graphics/SVG/1.1/DTD/svg11.dtd">
<svg width="100%" height="100%" viewBox="0 0 1418 1418" version="1.1" xmlns="http://www.w3.org/2000/svg" xmlns:xlink="http://www.w3.org/1999/xlink" xml:space="preserve" xmlns:serif="http://www.serif.com/" style="fill-rule:evenodd;clip-rule:evenodd;stroke-linejoin:round;stroke-miterlimit:2;">
    <g id="Artboard1" transform="matrix(1,0,0,1,-1173.41,-312.714)">
        <rect x="1173.41" y="312.714" width="1417.98" height="1417.98" style="fill:none;"/>
        <clipPath id="_clip1">
            <rect x="1173.41" y="312.714" width="1417.98" height="1417.98"/>
        </clipPath>
        <g clip-path="url(#_clip1)">
            <g transform="matrix(0.965128,0,0,0.965128,66.2372,-14.5828)">
                <rect x="1147.61" y="339.862" width="1469.21" height="1469.21" style="fill:rgb(228,234,255);"/>
            </g>
            <g transform="matrix(1,0,0,1,0.411712,0.713857)">
                <rect x="1210.49" y="554.263" width="1343.83" height="72.666" style="fill:rgb(0,33,204);"/>
            </g>
            <g transform="matrix(0.124994,0,0,1,1059.59,227.26)">
                <rect x="1210.49" y="554.263" width="1343.83" height="72.666" style="fill:rgb(0,33,204);"/>
            </g>
            <g transform="matrix(0.249988,0,0,1,1009.39,431.821)">
                <rect x="1210.49" y="554.263" width="1343.83" height="72.666" style="fill:rgb(0,33,204);"/>
            </g>
            <g transform="matrix(0.249988,0,0,1,1815.08,431.821)">
                <rect x="1210.49" y="554.263" width="1343.83" height="72.666" style="fill:rgb(0,33,204);"/>
            </g>
            <g transform="matrix(0.124994,0,0,1,1369.28,227.26)">
                <rect x="1210.49" y="554.263" width="1343.83" height="72.666" style="fill:rgb(0,33,204);"/>
            </g>
            <g transform="matrix(0.124994,0,0,1,1925.77,227.26)">
                <rect x="1210.49" y="554.263" width="1343.83" height="72.666" style="fill:rgb(0,33,204);"/>
            </g>
            <g transform="matrix(0.124994,0,0,1,2235.45,227.26)">
                <rect x="1210.49" y="554.263" width="1343.83" height="72.666" style="fill:rgb(0,33,204);"/>
            </g>
            <g transform="matrix(1,0,0,1,0.411712,0.713857)">
                <g transform="matrix(3.79817e-17,0.620288,-1,6.12323e-17,2473,-56.6303)">
                    <rect x="1210.49" y="554.263" width="1343.83" height="72.666" style="fill:rgb(0,33,204);"/>
                </g>
                <g transform="matrix(1,0,0,1,136.695,17.7336)">
                    <g transform="matrix(0.174807,0.174807,-0.707107,0.707107,1742.53,665.99)">
                        <rect x="1210.49" y="554.263" width="1343.83" height="72.666" style="fill:rgb(0,33,204);"/>
                    </g>
                    <g transform="matrix(-0.174807,0.174807,-0.707107,-0.707107,2584.11,1501.22)">
                        <rect x="1210.49" y="554.263" width="1343.83" height="72.666" style="fill:rgb(0,33,204);"/>
                    </g>
                </g>
            </g>
        </g>
    </g>
</svg>
